<?xml version="1.0" encoding="UTF-8"?>
<svg width="200" height="200" xmlns="http://www.w3.org/2000/svg" xmlns:xlink="http://www.w3.org/1999/xlink">
 <title>Fresh Splash</title>
 <defs>
  <linearGradient xlink:href="#linearGradient6394" id="linearGradient7317" x1="0.508463" y1="-0.585502" x2="0.508463" y2="1.465723"/>
  <linearGradient id="linearGradient7281">
   <stop offset="0" id="stop7283" stop-color="#ff0000"/>
   <stop id="stop7289" offset="0.858974" stop-color="#6d1313"/>
   <stop offset="1" id="stop7285" stop-color="#cb0c0c"/>
  </linearGradient>
  <linearGradient xlink:href="#linearGradient7281" id="linearGradient7315" x1="0.5" y1="0" x2="0.5" y2="1"/>
  <linearGradient id="linearGradient6394">
   <stop offset="0" id="stop6396" stop-color="#ffffff"/>
   <stop offset="1" id="stop6398" stop-opacity="0" stop-color="#ffffff"/>
  </linearGradient>
  <linearGradient id="linearGradient7179">
   <stop offset="0" id="stop7181" stop-color="#000000"/>
   <stop id="stop7187" offset="0.83" stop-color="#5b5858"/>
   <stop offset="1" id="stop7183" stop-color="#000000"/>
  </linearGradient>
 </defs>
 <metadata id="metadata7346">image/svg+xml</metadata>
 <g>
  <title>Layer 1</title>
  <g externalResourcesRequired="false" id="layer1">
   <g externalResourcesRequired="false" id="g7311">
    <path id="path7271" d="m174.188049,150.714966l-20.362549,-3.075378l5.389526,19.875702l-18.958008,-8.042725l0.277298,20.591614l-16.362236,-12.50473l-4.852333,20.013641l-12.738411,-16.181l-9.677071,18.178162l-8.314156,-18.840546l-13.893784,15.20047l-3.367485,-20.316284l-17.237492,11.26767l1.79076,-20.515472l-19.4981,6.626892l6.836491,-19.425598l-20.533571,1.569733l11.452662,-17.115143l-20.278852,-3.58609l15.349221,-13.729286l-18.749921,-8.516563l18.28132,-9.480774l-16.04287,-12.911896l20.064751,-4.636536l-12.327791,-16.495968l20.587431,0.499081l-7.83812,-19.043522l19.816547,5.60321l-2.855949,-20.394468l17.800503,10.35541l2.305679,-20.46399l14.665985,14.45679l7.322433,-19.24768l10.60994,17.649961l11.879097,-16.82196l5.887253,19.734009l15.689354,-13.33923l0.794632,20.578121l18.513779,-9.018372l-4.347916,20.129272l20.174927,-4.130863l-9.217255,18.415531l20.56839,1.016228l-13.507431,15.5448l19.669479,6.099434l-16.948929,11.697243l17.534668,10.799393l-19.325424,7.114754l14.29808,14.820801l-20.487656,2.085175l10.163101,17.91098z" marker-end="none" marker-mid="none" marker-start="none" fill-rule="nonzero" fill="#a81d0b"/>
    <path id="path7273" d="m92.843231,22.00963c-1.854553,0.12903 -3.464874,1.324579 -4.125,3.0625l-1.8125,4.75c-0.330261,0.863581 -1.096161,1.4834 -2.03125,1.687498c-0.935059,0.204102 -1.833618,-0.065189 -2.5,-0.718748l-3.625,-3.5625c-1.300751,-1.2887 -3.224731,-1.71826 -4.950134,-1.10541c-1.725403,0.612919 -2.947235,2.15991 -3.143616,3.98041l-0.5625,5.031248c-0.108398,0.952641 -0.627045,1.734253 -1.46875,2.15625c-0.841705,0.422001 -1.85907,0.371151 -2.65625,-0.09375c-0.010406,-0.000057 -0.020813,-0.000057 -0.03125,0l-4.4375,-2.5625c-1.576019,-0.903809 -3.528748,-0.833069 -5.035278,0.182373c-1.5065,1.015377 -2.30481,2.798889 -2.058472,4.598877l0.71875,5.0625c0.128021,0.921204 -0.216339,1.84222 -0.9375,2.46875c-0.72113,0.626522 -1.659607,0.820374 -2.5625,0.5625c-0.010406,-0.000057 -0.020813,-0.000057 -0.03125,0l-4.875,-1.375c-1.754791,-0.489197 -3.634949,0.064632 -4.844391,1.426941c-1.209442,1.362301 -1.536652,3.2948 -0.843109,4.979309l1.9375,4.6875c0.359985,0.87207 0.244049,1.892391 -0.28125,2.65625c-0.525269,0.763851 -1.386383,1.211971 -2.34375,1.1875l-5.09375,-0.125c-1.81604,-0.038387 -3.496063,0.958801 -4.332214,2.571411c-0.836151,1.612549 -0.683075,3.560181 0.394714,5.022339l3.0625,4.09375c0.562592,0.754585 0.700165,1.707123 0.375,2.59375c-0.325165,0.886635 -1.05719,1.539345 -1.96875,1.75l-2.0625,0.46875c-2.156433,0.498108 -3.68634,2.415039 -3.693787,4.628235c-0.007446,2.213226 1.509491,4.140404 3.662537,4.653015c49.8862,11.858215 96.201416,10.861359 135.781281,4.1875c2.07196,-0.360748 3.662628,-2.036812 3.914612,-4.124786c0.251984,-2.087982 -0.894257,-4.09436 -2.820892,-4.937714c-0.836609,-0.360626 -1.400574,-1.064728 -1.59375,-1.90625c-0.193146,-0.841492 0.013,-1.765228 0.59375,-2.4375l3.34375,-3.84375c1.19046,-1.379486 1.490356,-3.316956 0.772552,-4.99176c-0.717804,-1.674866 -2.327606,-2.793945 -4.147552,-2.88324l-5.093719,-0.25c-0.948181,-0.045105 -1.781158,-0.572876 -2.250031,-1.375c-0.468872,-0.802132 -0.520447,-1.806458 -0.09375,-2.65625l2.28125,-4.5625c0.804321,-1.63007 0.611511,-3.575687 -0.497101,-5.016239c-1.108551,-1.440491 -2.939972,-2.125118 -4.721649,-1.765011l-4.96875,1.03125c-0.90506,0.185181 -1.868073,-0.111149 -2.53125,-0.78125c-0.663116,-0.67017 -0.920105,-1.597107 -0.71875,-2.53125l1.0625,-4.9375c0.381287,-1.78302 -0.287994,-3.627258 -1.723999,-4.75079c-1.435944,-1.123539 -3.387115,-1.329468 -5.026001,-0.53046l-4.562469,2.21875c-0.839111,0.411072 -1.838501,0.365173 -2.656281,-0.125c-0.81781,-0.490238 -1.310455,-1.307617 -1.343719,-2.25c0.000031,-0.010437 0.000031,-0.020809 0,-0.03125l-0.187531,-5.0625c-0.07605,-1.819029 -1.181671,-3.435789 -2.849152,-4.166569c-1.66748,-0.730709 -3.605591,-0.44787 -4.994598,0.729071l-3.875,3.281248c-0.704559,0.597591 -1.687195,0.800602 -2.59375,0.53125c-0.906555,-0.269348 -1.571899,-0.962708 -1.84375,-1.874998l-1.46875,-4.90625c-0.522644,-1.750669 -2.000031,-3.048651 -3.803467,-3.341431c-1.803467,-0.292789 -3.61557,0.47101 -4.665283,1.966431l-2.9375,4.1875c-0.54245,0.770451 -1.396729,1.222651 -2.34375,1.1875c-0.947021,-0.03516 -1.799591,-0.538879 -2.28125,-1.34375l-2.59375,-4.34375c-0.917877,-1.53717 -2.619751,-2.430361 -4.40625,-2.3125l0,0z" marker-end="none" marker-mid="none" marker-start="none" fill-rule="nonzero" fill="url(#linearGradient7317)"/>
    <text fill="#ffff00" stroke-width="0" stroke-dasharray="null" stroke-linejoin="null" stroke-linecap="null" x="98" y="110.000004" id="svg_2" font-size="40" font-family="Georgia" text-anchor="middle" xml:space="preserve" transform="rotate(-26.9061 98 96.5)" font-weight="normal" font-style="normal">Fresh</text>
   </g>
  </g>
 </g>
</svg>